<svg xmlns="http://www.w3.org/2000/svg" style="margin:auto;background:0 0" width="200" height="200" viewBox="0 0 100 100" preserveAspectRatio="xMidYMid" display="block"><rect x="47.5" y="27.5" rx="2.5" ry="5.5" width="5" height="11" fill="pink"><animate attributeName="opacity" values="1;0" keyTimes="0;1" dur="1s" begin="-0.9230769230769231s" repeatCount="indefinite"/></rect><rect x="47.5" y="27.5" rx="2.5" ry="5.5" width="5" height="11" fill="pink" transform="rotate(27.692 50 50)"><animate attributeName="opacity" values="1;0" keyTimes="0;1" dur="1s" begin="-0.8461538461538461s" repeatCount="indefinite"/></rect><rect x="47.5" y="27.5" rx="2.5" ry="5.5" width="5" height="11" fill="pink" transform="rotate(55.385 50 50)"><animate attributeName="opacity" values="1;0" keyTimes="0;1" dur="1s" begin="-0.7692307692307693s" repeatCount="indefinite"/></rect><rect x="47.5" y="27.5" rx="2.5" ry="5.5" width="5" height="11" fill="pink" transform="rotate(83.077 50 50)"><animate attributeName="opacity" values="1;0" keyTimes="0;1" dur="1s" begin="-0.6923076923076923s" repeatCount="indefinite"/></rect><rect x="47.5" y="27.5" rx="2.5" ry="5.5" width="5" height="11" fill="pink" transform="rotate(110.77 50 50)"><animate attributeName="opacity" values="1;0" keyTimes="0;1" dur="1s" begin="-0.6153846153846154s" repeatCount="indefinite"/></rect><rect x="47.5" y="27.5" rx="2.5" ry="5.5" width="5" height="11" fill="pink" transform="rotate(138.462 50 50)"><animate attributeName="opacity" values="1;0" keyTimes="0;1" dur="1s" begin="-0.5384615384615384s" repeatCount="indefinite"/></rect><rect x="47.5" y="27.5" rx="2.5" ry="5.5" width="5" height="11" fill="pink" transform="rotate(166.154 50 50)"><animate attributeName="opacity" values="1;0" keyTimes="0;1" dur="1s" begin="-0.46153846153846156s" repeatCount="indefinite"/></rect><rect x="47.5" y="27.5" rx="2.5" ry="5.5" width="5" height="11" fill="pink" transform="rotate(193.846 50 50)"><animate attributeName="opacity" values="1;0" keyTimes="0;1" dur="1s" begin="-0.38461538461538464s" repeatCount="indefinite"/></rect><rect x="47.5" y="27.5" rx="2.5" ry="5.5" width="5" height="11" fill="pink" transform="rotate(221.538 50 50)"><animate attributeName="opacity" values="1;0" keyTimes="0;1" dur="1s" begin="-0.3076923076923077s" repeatCount="indefinite"/></rect><rect x="47.5" y="27.5" rx="2.5" ry="5.5" width="5" height="11" fill="pink" transform="rotate(249.23 50 50)"><animate attributeName="opacity" values="1;0" keyTimes="0;1" dur="1s" begin="-0.23076923076923078s" repeatCount="indefinite"/></rect><rect x="47.5" y="27.5" rx="2.5" ry="5.5" width="5" height="11" fill="pink" transform="rotate(276.923 50 50)"><animate attributeName="opacity" values="1;0" keyTimes="0;1" dur="1s" begin="-0.15384615384615385s" repeatCount="indefinite"/></rect><rect x="47.5" y="27.5" rx="2.5" ry="5.5" width="5" height="11" fill="pink" transform="rotate(304.615 50 50)"><animate attributeName="opacity" values="1;0" keyTimes="0;1" dur="1s" begin="-0.07692307692307693s" repeatCount="indefinite"/></rect><rect x="47.5" y="27.5" rx="2.5" ry="5.5" width="5" height="11" fill="pink" transform="rotate(332.308 50 50)"><animate attributeName="opacity" values="1;0" keyTimes="0;1" dur="1s" begin="0s" repeatCount="indefinite"/></rect></svg>